<svg width="12" height="7" viewBox="0 0 12 7" fill="none" xmlns="http://www.w3.org/2000/svg">
<path d="M5.28996 5.95555L1.04996 1.71556C0.861653 1.52858 0.755338 1.27446 0.754401 1.00909C0.753463 0.743728 0.857979 0.48886 1.04496 0.300556C1.23193 0.112253 1.48606 0.00593802 1.75142 0.00500007C2.01678 0.0040626 2.27165 0.108579 2.45996 0.295556L5.99996 3.83056L9.53996 0.290556C9.72826 0.103578 9.98313 -0.000937865 10.2485 -4.15e-07C10.5139 0.000937512 10.768 0.107252 10.955 0.295556C11.1419 0.48386 11.2465 0.738727 11.2455 1.00409C11.2446 1.26945 11.1383 1.52358 10.95 1.71056L6.70996 5.95055C6.61699 6.04428 6.50639 6.11868 6.38453 6.16945C6.26267 6.22022 6.13197 6.24635 5.99996 6.24635C5.86794 6.24635 5.73724 6.22022 5.61538 6.16945C5.49352 6.11868 5.38292 6.04428 5.28996 5.95055L5.28996 5.95555Z" fill="#6F767E"/>
</svg>
