<svg width="20" height="20" viewBox="0 0 20 20" fill="none" xmlns="http://www.w3.org/2000/svg">
<path d="M17.0005 0.000504276H3.0005C2.60452 -0.00682307 2.21113 0.065768 1.84384 0.213938C1.47655 0.362108 1.14291 0.582815 0.862864 0.862864C0.582815 1.14291 0.362108 1.47655 0.213938 1.84384C0.065768 2.21113 -0.00682307 2.60452 0.000504276 3.0005V13.0005C-0.00682307 13.3965 0.065768 13.7899 0.213938 14.1572C0.362108 14.5245 0.582815 14.8581 0.862864 15.1381C1.14291 15.4182 1.47655 15.6389 1.84384 15.7871C2.21113 15.9352 2.60452 16.0078 3.0005 16.0005H14.6005L18.3005 19.7005C18.3908 19.7953 18.4994 19.8707 18.6197 19.9222C18.7401 19.9738 18.8696 20.0004 19.0005 20.0004C19.1314 20.0004 19.2609 19.9738 19.3813 19.9222C19.5016 19.8707 19.6102 19.7953 19.7005 19.7005C19.7982 19.6125 19.8756 19.5043 19.9274 19.3835C19.9792 19.2626 20.0042 19.1319 20.0005 19.0005V3.0005C20.0078 2.60452 19.9352 2.21113 19.7871 1.84384C19.6389 1.47655 19.4182 1.14291 19.1381 0.862864C18.8581 0.582815 18.5245 0.362108 18.1572 0.213938C17.7899 0.065768 17.3965 -0.00682307 17.0005 0.000504276ZM5.0005 11.0005C4.73529 11.0005 4.48093 10.8951 4.2934 10.7076C4.10586 10.5201 4.0005 10.2657 4.0005 10.0005C4.0005 9.73529 4.10586 9.48093 4.2934 9.2934C4.48093 9.10586 4.73529 9.0005 5.0005 9.0005C5.26572 9.0005 5.52007 9.10586 5.70761 9.2934C5.89515 9.48093 6.0005 9.73529 6.0005 10.0005C6.0005 10.2657 5.89515 10.5201 5.70761 10.7076C5.52007 10.8951 5.26572 11.0005 5.0005 11.0005ZM5.0005 7.0005C4.86709 7.00852 4.73349 6.98815 4.60853 6.94073C4.48357 6.89332 4.37009 6.81993 4.27559 6.72542C4.18108 6.63092 4.10769 6.51744 4.06027 6.39248C4.01286 6.26752 3.99248 6.13392 4.0005 6.0005C3.99248 5.86709 4.01286 5.73349 4.06027 5.60853C4.10769 5.48357 4.18108 5.37009 4.27559 5.27559C4.37009 5.18108 4.48357 5.10769 4.60853 5.06027C4.73349 5.01286 4.86709 4.99249 5.0005 5.0005C5.13392 4.99249 5.26752 5.01286 5.39248 5.06027C5.51744 5.10769 5.63092 5.18108 5.72542 5.27559C5.81993 5.37009 5.89332 5.48357 5.94073 5.60853C5.98815 5.73349 6.00852 5.86709 6.0005 6.0005C6.00852 6.13392 5.98815 6.26752 5.94073 6.39248C5.89332 6.51744 5.81993 6.63092 5.72542 6.72542C5.63092 6.81993 5.51744 6.89332 5.39248 6.94073C5.26752 6.98815 5.13392 7.00852 5.0005 7.0005ZM15.0005 11.0005H9.0005C8.73529 11.0005 8.48093 10.8951 8.2934 10.7076C8.10586 10.5201 8.0005 10.2657 8.0005 10.0005C8.0005 9.73529 8.10586 9.48093 8.2934 9.2934C8.48093 9.10586 8.73529 9.0005 9.0005 9.0005H15.0005C15.2657 9.0005 15.5201 9.10586 15.7076 9.2934C15.8951 9.48093 16.0005 9.73529 16.0005 10.0005C16.0005 10.2657 15.8951 10.5201 15.7076 10.7076C15.5201 10.8951 15.2657 11.0005 15.0005 11.0005ZM15.0005 7.0005H9.0005C8.86709 7.00852 8.73349 6.98815 8.60853 6.94073C8.48357 6.89332 8.37009 6.81993 8.27559 6.72542C8.18108 6.63092 8.10769 6.51744 8.06027 6.39248C8.01286 6.26752 7.99249 6.13392 8.0005 6.0005C7.99249 5.86709 8.01286 5.73349 8.06027 5.60853C8.10769 5.48357 8.18108 5.37009 8.27559 5.27559C8.37009 5.18108 8.48357 5.10769 8.60853 5.06027C8.73349 5.01286 8.86709 4.99249 9.0005 5.0005H15.0005C15.1339 4.99249 15.2675 5.01286 15.3925 5.06027C15.5174 5.10769 15.6309 5.18108 15.7254 5.27559C15.8199 5.37009 15.8933 5.48357 15.9407 5.60853C15.9882 5.73349 16.0085 5.86709 16.0005 6.0005C16.0085 6.13392 15.9882 6.26752 15.9407 6.39248C15.8933 6.51744 15.8199 6.63092 15.7254 6.72542C15.6309 6.81993 15.5174 6.89332 15.3925 6.94073C15.2675 6.98815 15.1339 7.00852 15.0005 7.0005Z" fill="white"/>
</svg>
