<svg width="24" height="24" viewBox="0 0 24 24" fill="none" xmlns="http://www.w3.org/2000/svg">
<mask id="mask0_226_117" style="mask-type:alpha" maskUnits="userSpaceOnUse" x="0" y="0" width="24" height="24">
<rect width="24" height="24" fill="#D9D9D9"/>
</mask>
<g mask="url(#mask0_226_117)">
<path d="M11.1849 6.34599C10.8049 5.40801 10.8049 4.35897 11.1849 3.42099V6.34599Z" fill="white"/>
<path d="M17.6 5.34399C17.5959 5.84439 17.4617 6.33512 17.2107 6.76803C16.9597 7.20093 16.6004 7.56113 16.1682 7.81326C15.7359 8.0654 15.2455 8.2008 14.7451 8.20619C14.2447 8.21157 13.7515 8.08676 13.314 7.84399C13.943 7.14862 14.2959 6.24718 14.3062 5.3096C14.3165 4.37201 13.9835 3.46303 13.37 2.75399C13.8125 2.52136 14.308 2.40767 14.8077 2.42403C15.3074 2.4404 15.7943 2.58627 16.2207 2.84736C16.6471 3.10844 16.9984 3.4758 17.2402 3.91345C17.482 4.3511 17.6059 4.84403 17.6 5.34399Z" fill="white"/>
<path d="M9.06177 8.76699C9.82995 8.76699 10.5809 8.5392 11.2196 8.11242C11.8583 7.68564 12.3561 7.07905 12.6501 6.36934C12.9441 5.65963 13.021 4.87869 12.8711 4.12526C12.7213 3.37184 12.3514 2.67978 11.8082 2.13659C11.265 1.5934 10.5729 1.22349 9.8195 1.07362C9.06608 0.92376 8.28514 1.00068 7.57543 1.29465C6.86572 1.58862 6.25912 2.08644 5.83234 2.72516C5.40556 3.36388 5.17777 4.11481 5.17777 4.88299C5.17552 5.39368 5.27445 5.89975 5.46884 6.37199C5.66323 6.84424 5.94924 7.2733 6.31035 7.63441C6.67146 7.99553 7.10053 8.28153 7.57277 8.47593C8.04502 8.67032 8.55109 8.76924 9.06177 8.76699Z" fill="white"/>
<path d="M15.029 13.479C13.3819 14.9718 12.2492 16.9474 11.793 19.123H1.3C0.956256 19.123 0.626502 18.9869 0.382876 18.7443C0.13925 18.5018 0.00158651 18.1727 0 17.829V15.887C0 12.871 6.045 11.356 9.062 11.356C11.3549 11.4008 13.6111 11.9394 15.677 12.935C15.457 13.104 15.237 13.285 15.029 13.479Z" fill="white"/>
<path d="M17.263 15.831C16.5791 16.4487 15.9967 17.1702 15.537 17.969L16.768 19.327C16.842 19.409 16.8917 19.5099 16.9115 19.6186C16.9312 19.7272 16.9204 19.8392 16.88 19.942C16.6494 20.5404 16.5039 21.1682 16.448 21.807C16.4384 21.9604 16.3692 22.104 16.255 22.207C16.1979 22.2593 16.1308 22.2996 16.0578 22.3256C15.9848 22.3515 15.9074 22.3625 15.83 22.358L13.767 22.258C13.6097 22.2504 13.4619 22.1806 13.356 22.064C13.3036 22.0065 13.2632 21.9391 13.2371 21.8658C13.211 21.7925 13.1997 21.7147 13.204 21.637C13.3968 19.0739 14.5658 16.6824 16.47 14.9559C18.3742 13.2294 20.8683 12.2995 23.438 12.358C23.5155 12.3614 23.5916 12.3802 23.6618 12.4132C23.732 12.4462 23.795 12.4927 23.8472 12.5502C23.8993 12.6076 23.9396 12.6748 23.9657 12.7479C23.9917 12.821 24.0031 12.8985 23.999 12.976L23.899 15.039C23.8921 15.1953 23.8234 15.3424 23.708 15.448C23.5932 15.5509 23.4432 15.6057 23.289 15.601C22.6473 15.5942 22.0077 15.6773 21.389 15.848C21.283 15.8779 21.1707 15.8778 21.0648 15.8476C20.9588 15.8174 20.8633 15.7583 20.789 15.677L19.558 14.319C18.7192 14.7009 17.9449 15.211 17.263 15.831Z" fill="white"/>
</g>
</svg>
