<svg width="24" height="24" viewBox="0 0 24 24" fill="none" xmlns="http://www.w3.org/2000/svg">
<mask id="mask0_113_227" style="mask-type:alpha" maskUnits="userSpaceOnUse" x="0" y="0" width="24" height="24">
<rect width="24" height="24" fill="#D9D9D9"/>
</mask>
<g mask="url(#mask0_113_227)">
<path d="M16.0003 10.6C16.5937 10.6 17.1738 10.4065 17.6672 10.0438C18.1606 9.68124 18.5451 9.16585 18.7722 8.56286C18.9993 7.95986 19.0587 7.29634 18.9429 6.6562C18.8272 6.01607 18.5414 5.42806 18.1218 4.96655C17.7022 4.50504 17.1676 4.19074 16.5857 4.06341C16.0037 3.93608 15.4004 4.00143 14.8522 4.2512C14.304 4.50097 13.8354 4.92394 13.5057 5.46662C13.176 6.0093 13.0001 6.64732 13.0001 7.3C12.9984 7.73389 13.0748 8.16384 13.225 8.56506C13.3752 8.96628 13.5961 9.33081 13.875 9.63762C14.154 9.94442 14.4854 10.1874 14.8502 10.3526C15.215 10.5178 15.6059 10.6019 16.0003 10.6ZM8.00058 10.6C8.59402 10.6 9.17412 10.4064 9.66753 10.0438C10.1609 9.68113 10.5455 9.16568 10.7725 8.56262C10.9996 7.95957 11.059 7.296 10.9431 6.65583C10.8273 6.01567 10.5414 5.42767 10.1218 4.96619C9.70207 4.50472 9.16739 4.1905 8.58534 4.06329C8.00329 3.93607 7.40001 4.00156 6.8518 4.25149C6.30359 4.50141 5.83508 4.92454 5.50552 5.46735C5.17596 6.01017 5.00015 6.64829 5.00033 7.30101C4.99876 7.73472 5.07526 8.16449 5.22543 8.56553C5.37561 8.96656 5.59648 9.33093 5.8753 9.63761C6.15413 9.9443 6.4854 10.1872 6.85001 10.3524C7.21462 10.5176 7.60535 10.6017 7.99967 10.6H8.00058ZM8.00058 12.8C5.67042 12.8 1 14.0835 1 16.6495V18.299C1.00073 18.5905 1.10632 18.8698 1.29372 19.0759C1.48111 19.282 1.73507 19.3982 2.00008 19.399H14.0002C14.2652 19.3982 14.5191 19.282 14.7065 19.0759C14.8939 18.8698 14.9995 18.5905 15.0003 18.299V16.6495C15.0003 14.0835 10.3298 12.8 7.99967 12.8H8.00058ZM16.0003 12.8C15.7107 12.8 15.3807 12.8222 15.0305 12.8555C15.0507 12.8665 15.0608 12.8887 15.0708 12.8998C15.6478 13.3026 16.1257 13.8555 16.4622 14.5096C16.7988 15.1638 16.9836 15.8991 17.0004 16.6505V18.3C16.9966 18.6755 16.9346 19.0474 16.8171 19.4H21.9972C22.2627 19.4 22.5173 19.2842 22.7053 19.078C22.8933 18.8718 22.9993 18.592 23 18.3V16.6495C23 14.0835 18.3296 12.8 16.0003 12.8Z" fill="white"/>
</g>
</svg>
