<svg width="24" height="24" viewBox="0 0 24 24" fill="none" xmlns="http://www.w3.org/2000/svg">
<g clip-path="url(#clip0_960_12909)">
<mask id="mask0_960_12909" style="mask-type:alpha" maskUnits="userSpaceOnUse" x="2" y="2" width="20" height="20">
<rect x="2" y="2" width="20" height="20" fill="#D9D9D9"/>
</mask>
<g mask="url(#mask0_960_12909)">
<path fill-rule="evenodd" clip-rule="evenodd" d="M5.11108 4H3.09181C2.80303 4.00026 2.52609 4.11414 2.32151 4.31676C2.11693 4.51937 2.00134 4.79425 2 5.08132V18.4216C2.0008 18.709 2.11616 18.9844 2.32079 19.1874C2.52543 19.3905 2.80268 19.5046 3.09181 19.5049H20.3093L14.2039 13.2763L13.4985 13.9785C13.4417 14.0327 13.3703 14.0692 13.2929 14.0837C13.2156 14.0982 13.1357 14.09 13.0629 14.0601C12.9894 14.0305 12.9265 13.9797 12.8824 13.9142C12.8383 13.8486 12.8151 13.7714 12.8158 13.6926V12.6153C11.8026 12.691 10.835 13.0649 10.0364 13.6895C9.23787 14.314 8.64453 15.1609 8.3321 16.122C8.30591 16.2018 8.25503 16.2712 8.18672 16.3205C8.11841 16.3698 8.03618 16.3963 7.95179 16.3963C7.8674 16.3963 7.78517 16.3698 7.71686 16.3205C7.64855 16.2712 7.59767 16.2018 7.57148 16.122C7.38136 15.5333 7.28433 14.9189 7.28384 14.3007C7.28616 12.8068 7.85805 11.3694 8.88424 10.2781C9.27964 9.85766 9.73114 9.50061 10.2226 9.21465L5.11108 4ZM15.6214 11.8653L16.6068 10.8846C16.6827 10.8101 16.726 10.7087 16.7273 10.6027C16.7269 10.5507 16.7161 10.4993 16.6954 10.4516C16.6747 10.4039 16.6445 10.3607 16.6068 10.3248L13.4964 7.22784C13.4397 7.17366 13.3682 7.1371 13.2909 7.12261C13.2135 7.10813 13.1336 7.11636 13.0609 7.14628C12.9874 7.1758 12.9245 7.22663 12.8804 7.29217C12.8363 7.35772 12.8131 7.43493 12.8138 7.51377V8.4199C12.6413 8.43174 12.4701 8.451 12.3006 8.47749L7.91167 4H20.9112C21.0543 4 21.196 4.02803 21.3281 4.08248C21.4603 4.13694 21.5803 4.21675 21.6815 4.31736C21.7826 4.41797 21.8628 4.5374 21.9174 4.66883C21.9721 4.80026 22.0001 4.94111 22 5.08333V18.3726L15.6214 11.8653ZM16.4207 20.8835C16.3457 20.9581 16.2439 21 16.1378 21H7.86823C7.76213 21 7.66037 20.9581 7.58535 20.8835C7.51032 20.8089 7.46817 20.7078 7.46817 20.6023C7.46817 20.4968 7.51032 20.3957 7.58535 20.3211C7.66037 20.2465 7.76213 20.2046 7.86823 20.2046H16.1378C16.2439 20.2046 16.3457 20.2465 16.4207 20.3211C16.4958 20.3957 16.5379 20.4968 16.5379 20.6023C16.5379 20.7078 16.4958 20.8089 16.4207 20.8835Z" fill="white"/>
</g>
<rect x="1.92383" y="0.712402" width="28.3416" height="2" rx="1" transform="rotate(45.5723 1.92383 0.712402)" fill="white"/>
</g>
<defs>
<clipPath id="clip0_960_12909">
<rect width="24" height="24" fill="white"/>
</clipPath>
</defs>
</svg>
