<svg width="24" height="24" viewBox="0 0 24 24" fill="none" xmlns="http://www.w3.org/2000/svg">
<mask id="mask0_39_267" style="mask-type:alpha" maskUnits="userSpaceOnUse" x="0" y="0" width="24" height="24">
<rect width="24" height="24" fill="#D9D9D9"/>
</mask>
<g mask="url(#mask0_39_267)">
<path d="M22.6935 2.40002H1.31017C0.963633 2.40034 0.631305 2.537 0.385808 2.78013C0.140311 3.02327 0.0016057 3.35312 0 3.6976V19.7059C0.000964525 20.0508 0.139387 20.3813 0.384953 20.6249C0.630519 20.8686 0.963213 21.0056 1.31017 21.0059H22.6947C22.8664 21.0056 23.0364 20.9716 23.195 20.906C23.3535 20.8404 23.4975 20.7444 23.6187 20.6234C23.7399 20.5025 23.836 20.359 23.9014 20.2011C23.9668 20.0433 24.0003 19.8742 24 19.7035V3.70002C24.0002 3.52936 23.9665 3.36034 23.9009 3.20262C23.8353 3.04491 23.7391 2.90159 23.6178 2.78086C23.4964 2.66013 23.3523 2.56435 23.1937 2.499C23.0351 2.43366 22.8651 2.40002 22.6935 2.40002ZM17.5281 10.6615L13.7981 14.3742C13.73 14.4392 13.6443 14.4831 13.5515 14.5005C13.4587 14.5179 13.3628 14.508 13.2755 14.4721C13.1873 14.4367 13.1118 14.3757 13.0589 14.297C13.006 14.2184 12.9782 14.1257 12.979 14.0311V12.7384C11.7631 12.8292 10.602 13.2779 9.64371 14.0274C8.68544 14.7769 7.97344 15.7931 7.59852 16.9464C7.5671 17.0421 7.50603 17.1255 7.42406 17.1846C7.34209 17.2437 7.24342 17.2756 7.14215 17.2756C7.04088 17.2756 6.9422 17.2437 6.86023 17.1846C6.77826 17.1255 6.7172 17.0421 6.68577 16.9464C6.45763 16.24 6.34119 15.5027 6.34061 14.7608C6.3434 12.9682 7.02966 11.2433 8.26109 9.93378C9.49252 8.62423 11.1775 7.8274 12.9766 7.7039V6.61655C12.9757 6.52194 13.0036 6.42929 13.0565 6.35063C13.1094 6.27198 13.1849 6.21098 13.2731 6.17557C13.3604 6.13965 13.4563 6.12978 13.5491 6.14716C13.6419 6.16454 13.7276 6.20842 13.7957 6.27343L17.5281 9.98977C17.5734 10.0329 17.6096 10.0847 17.6344 10.1419C17.6593 10.1992 17.6723 10.2609 17.6728 10.3232C17.6713 10.4505 17.6193 10.5721 17.5281 10.6615ZM16.9654 22.8C17.0927 22.8 17.2148 22.7497 17.3049 22.6602C17.3949 22.5708 17.4455 22.4494 17.4455 22.3228C17.4455 22.1962 17.3949 22.0748 17.3049 21.9853C17.2148 21.8958 17.0927 21.8456 16.9654 21.8456H7.04188C6.91456 21.8456 6.79245 21.8958 6.70242 21.9853C6.61238 22.0748 6.56181 22.1962 6.56181 22.3228C6.56181 22.4494 6.61238 22.5708 6.70242 22.6602C6.79245 22.7497 6.91456 22.8 7.04188 22.8H16.9654Z" fill="white"/>
</g>
</svg>
