<svg width="24" height="24" viewBox="0 0 24 24" fill="none" xmlns="http://www.w3.org/2000/svg">
<path d="M23.3083 10.8788C23.2473 10.7304 23.1438 10.6034 23.0108 10.5137C22.8778 10.4241 22.7212 10.3758 22.5608 10.375H21.6102C21.504 9.71866 21.327 9.07574 21.0821 8.45758C20.3689 6.6287 19.1202 5.05769 17.4995 3.95012C15.8788 2.84255 13.9615 2.25 11.9985 2.25C10.0355 2.25 8.11815 2.84255 6.49744 3.95012C4.87672 5.05769 3.62808 6.6287 2.91488 8.45758C2.86691 8.55853 2.84029 8.6683 2.83668 8.78002C2.83307 8.89173 2.85255 9.00299 2.8939 9.10684C2.93525 9.21068 2.99758 9.30488 3.077 9.38353C3.15641 9.46219 3.2512 9.52361 3.35544 9.56396C3.45968 9.60431 3.57112 9.62272 3.68279 9.61803C3.79447 9.61335 3.90398 9.58567 4.00447 9.53674C4.10496 9.4878 4.19428 9.41865 4.26682 9.33362C4.33937 9.24859 4.3936 9.14951 4.42611 9.04257C5.01949 7.51677 6.05997 6.20582 7.41119 5.28151C8.76242 4.35719 10.3614 3.86263 11.9985 3.86263C13.6356 3.86263 15.2345 4.35719 16.5857 5.28151C17.937 6.20582 18.9774 7.51677 19.5708 9.04257C19.7373 9.47391 19.8624 9.92007 19.9446 10.375H19.3108C19.1504 10.3758 18.9939 10.4241 18.8608 10.5137C18.7278 10.6034 18.6243 10.7304 18.5634 10.8788C18.5011 11.0267 18.4841 11.1898 18.5145 11.3474C18.5449 11.505 18.6212 11.6501 18.734 11.7644L20.3589 13.3894L20.4889 13.4706C20.4889 13.4706 20.4889 13.4706 20.5296 13.4706C20.6469 13.5607 20.7882 13.6144 20.9358 13.625C21.0427 13.6256 21.1487 13.6051 21.2477 13.5647C21.3467 13.5242 21.4368 13.4647 21.5127 13.3894L23.1376 11.7644C23.2504 11.6501 23.3268 11.505 23.3571 11.3474C23.3875 11.1898 23.3705 11.0267 23.3083 10.8788ZM20.6189 14.4943C20.4185 14.4174 20.1957 14.4229 19.9993 14.5097C19.803 14.5965 19.6489 14.7574 19.5708 14.9575C18.9774 16.4833 17.937 17.7942 16.5857 18.7185C15.2345 19.6428 13.6356 20.1374 11.9985 20.1374C10.3614 20.1374 8.76242 19.6428 7.41119 18.7185C6.05997 17.7942 5.01949 16.4833 4.42611 14.9575C4.25968 14.5261 4.13454 14.08 4.05236 13.625H4.6861C4.84651 13.6242 5.00309 13.5759 5.13611 13.4863C5.26913 13.3966 5.37264 13.2696 5.43359 13.1212C5.49581 12.9733 5.51281 12.8102 5.48244 12.6526C5.45208 12.495 5.3757 12.3499 5.26297 12.2356L3.638 10.6107L3.508 10.5294C3.35533 10.4364 3.17626 10.3964 2.99853 10.4155C2.82079 10.4346 2.65432 10.5117 2.52489 10.635L0.899919 12.26C0.78718 12.3743 0.71081 12.5194 0.680444 12.677C0.650078 12.8346 0.667077 12.9977 0.729297 13.1456C0.791007 13.2833 0.889816 13.401 1.01466 13.4857C1.1395 13.5703 1.28545 13.6186 1.43616 13.625H2.38677C2.49292 14.2814 2.66999 14.9243 2.91488 15.5424C3.62808 17.3713 4.87672 18.9423 6.49744 20.0499C8.11815 21.1575 10.0355 21.75 11.9985 21.75C13.9615 21.75 15.8788 21.1575 17.4995 20.0499C19.1202 18.9423 20.3689 17.3713 21.0821 15.5424C21.159 15.342 21.1535 15.1192 21.0667 14.9229C20.9799 14.7265 20.819 14.5724 20.6189 14.4943Z" fill="white"/>
<path d="M14.4359 12C14.4359 11.5179 14.293 11.0467 14.0252 10.6458C13.7573 10.245 13.3767 9.93259 12.9313 9.7481C12.4859 9.56362 11.9958 9.51535 11.523 9.6094C11.0501 9.70345 10.6158 9.93559 10.275 10.2765C9.93407 10.6174 9.70192 11.0517 9.60787 11.5245C9.51382 11.9973 9.56209 12.4874 9.74658 12.9328C9.93106 13.3782 10.2435 13.7589 10.6443 14.0267C11.0452 14.2945 11.5164 14.4375 11.9985 14.4375C12.6449 14.4375 13.2649 14.1807 13.722 13.7236C14.1791 13.2664 14.4359 12.6465 14.4359 12ZM11.186 12C11.186 11.8393 11.2337 11.6822 11.3229 11.5486C11.4122 11.415 11.5391 11.3109 11.6876 11.2494C11.836 11.1879 11.9994 11.1718 12.157 11.2031C12.3146 11.2345 12.4594 11.3119 12.573 11.4255C12.6866 11.5391 12.764 11.6839 12.7954 11.8415C12.8267 11.9991 12.8106 12.1625 12.7491 12.3109C12.6876 12.4594 12.5835 12.5863 12.4499 12.6756C12.3163 12.7649 12.1592 12.8125 11.9985 12.8125C11.783 12.8125 11.5763 12.7269 11.424 12.5745C11.2716 12.4222 11.186 12.2155 11.186 12Z" fill="white"/>
</svg>
