<svg width="20" height="20" viewBox="0 0 20 20" fill="none" xmlns="http://www.w3.org/2000/svg">
<g clip-path="url(#clip0_299_2)">
<path d="M19.5011 14.909C19.6562 14.8121 19.7833 14.6787 19.8708 14.5212C19.9582 14.3637 20.0031 14.1873 20.0011 14.0084V6.00841C19.9911 5.8319 19.9411 5.6597 19.8547 5.50405C19.7683 5.34839 19.6475 5.21311 19.5011 5.10781C19.3539 5.01004 19.1796 4.95772 19.0011 4.95772C18.8227 4.95772 18.6484 5.01004 18.5011 5.10781L15.0011 6.90902C14.9752 6.14546 14.6508 5.42003 14.0937 4.87982C13.5366 4.33961 12.7885 4.02505 12.0011 3.99993H8.30112L19.3011 15.006C19.2999 14.909 19.3999 14.909 19.5011 14.909ZM19.7011 18.3102L14.9011 13.5078L5.40112 3.99993L1.70112 0.300534C1.61243 0.205986 1.50435 0.130447 1.38381 0.0787568C1.26327 0.0270668 1.13292 0.000366211 1.00112 0.000366211C0.869313 0.000366211 0.738964 0.0270668 0.618421 0.0787568C0.497879 0.130447 0.389801 0.205986 0.301116 0.300534C0.206024 0.392424 0.130575 0.501613 0.0790933 0.621839C0.0276118 0.742064 0.00111123 0.870962 0.00111123 1.00114C0.00111123 1.13132 0.0276118 1.26022 0.0790933 1.38044C0.130575 1.50067 0.206024 1.60986 0.301116 1.70175L2.60112 3.99993C1.8674 4.11309 1.20043 4.47921 0.722784 5.03101C0.245134 5.58282 -0.0111173 6.28323 0.00111555 7.00356V13.006C-0.00706815 13.3999 0.0648949 13.7914 0.21289 14.1583C0.360884 14.5252 0.582008 14.8602 0.863616 15.1442C1.13962 15.4227 1.47188 15.6431 1.83965 15.7916C2.20741 15.9401 2.6028 16.0135 3.00112 16.0072H12.0011C12.3502 16.0206 12.6984 15.9654 13.0249 15.845C13.3514 15.7246 13.6494 15.5415 13.9011 15.3066L18.3011 19.709C18.3916 19.8007 18.5002 19.8736 18.6205 19.9235C18.7408 19.9733 18.8703 19.999 19.0011 19.999C19.1319 19.999 19.2614 19.9733 19.3817 19.9235C19.502 19.8736 19.6107 19.8007 19.7011 19.709C19.8872 19.5204 19.9911 19.2695 19.9911 19.0084C19.9911 18.7474 19.8872 18.4964 19.7011 18.3078V18.3102Z" fill="white"/>
</g>
<defs>
<clipPath id="clip0_299_2">
<rect width="20" height="20" fill="white"/>
</clipPath>
</defs>
</svg>
