<svg width="20" height="12" viewBox="0 0 20 12" fill="none" xmlns="http://www.w3.org/2000/svg">
<path d="M19.0793 1.07649C18.9341 0.980882 18.7641 0.929929 18.5903 0.929929C18.4165 0.929929 18.2465 0.980882 18.1013 1.07649L14.6764 2.83748C14.6368 2.08104 14.3119 1.36771 13.7673 0.841254C13.2227 0.3148 12.4987 0.0143576 11.7414 0.000472351H2.93547C2.54811 -0.00653985 2.16331 0.0645854 1.80405 0.2096C1.44479 0.354615 1.11844 0.570545 0.844494 0.844494C0.570545 1.11844 0.354615 1.44479 0.2096 1.80405C0.0645854 2.16331 -0.00653985 2.54811 0.000472351 2.93547V8.80637C-0.00653985 9.19373 0.0645854 9.57853 0.2096 9.93779C0.354615 10.297 0.570545 10.6234 0.844494 10.8973C1.11844 11.1713 1.44479 11.3872 1.80405 11.5322C2.16331 11.6773 2.54811 11.7484 2.93547 11.7414H11.7414C12.4987 11.7275 13.2227 11.427 13.7673 10.9006C14.3119 10.3741 14.6368 9.6608 14.6764 8.90436L18.1984 10.6654C18.4222 10.7605 18.6724 10.7735 18.9049 10.7019C19.1373 10.6303 19.337 10.4789 19.4685 10.2743C19.5476 10.1241 19.5816 9.95435 19.5665 9.78531V1.95744C19.5562 1.78356 19.507 1.61419 19.4227 1.46176C19.3384 1.30933 19.2211 1.17769 19.0793 1.07649Z" fill="white"/>
</svg>
