<svg width="20" height="20" viewBox="0 0 20 20" fill="none" xmlns="http://www.w3.org/2000/svg">
<mask id="mask0_113_685" style="mask-type:alpha" maskUnits="userSpaceOnUse" x="0" y="0" width="20" height="20">
<rect width="20" height="20" fill="white"/>
</mask>
<g mask="url(#mask0_113_685)">
<path d="M19.0793 5.07649C18.9341 4.98088 18.7641 4.92993 18.5903 4.92993C18.4165 4.92993 18.2465 4.98088 18.1013 5.07649L14.6764 6.83748C14.6368 6.08104 14.3119 5.36771 13.7673 4.84125C13.2227 4.3148 12.4987 4.01436 11.7414 4.00047H2.93547C2.54811 3.99346 2.16331 4.06459 1.80405 4.2096C1.44479 4.35462 1.11844 4.57054 0.844494 4.84449C0.570545 5.11844 0.354615 5.44479 0.2096 5.80405C0.0645854 6.16331 -0.00653985 6.54811 0.000472351 6.93547V12.8064C-0.00653985 13.1937 0.0645854 13.5785 0.2096 13.9378C0.354615 14.297 0.570545 14.6234 0.844494 14.8973C1.11844 15.1713 1.44479 15.3872 1.80405 15.5322C2.16331 15.6773 2.54811 15.7484 2.93547 15.7414H11.7414C12.4987 15.7275 13.2227 15.427 13.7673 14.9006C14.3119 14.3741 14.6368 13.6608 14.6764 12.9044L18.1984 14.6654C18.4222 14.7605 18.6724 14.7735 18.9049 14.7019C19.1373 14.6303 19.337 14.4789 19.4685 14.2743C19.5476 14.1241 19.5816 13.9543 19.5665 13.7853V5.95744C19.5562 5.78356 19.507 5.61419 19.4227 5.46176C19.3384 5.30933 19.2211 5.17769 19.0793 5.07649Z" fill="white"/>
</g>
</svg>
